<?xml version="1.0" encoding="UTF-8"?>
<!DOCTYPE svg PUBLIC "-//W3C//DTD SVG 1.1//EN" "http://www.w3.org/Graphics/SVG/1.1/DTD/svg11.dtd">
<!-- Creator: CorelDRAW 2021.5 -->
<svg xmlns="http://www.w3.org/2000/svg" xml:space="preserve" width="9.44882in" height="1.9685in" version="1.1" style="shape-rendering:geometricPrecision; text-rendering:geometricPrecision; image-rendering:optimizeQuality; fill-rule:evenodd; clip-rule:evenodd"
viewBox="0 0 9448.82 1968.5"
 xmlns:xlink="http://www.w3.org/1999/xlink"
 xmlns:xodm="http://www.corel.com/coreldraw/odm/2003">
 <defs>
  <style type="text/css">
   <![CDATA[
    .fil0 {fill:#33197D;fill-rule:nonzero}
   ]]>
  </style>
   <clipPath id="id0">
    <rect x="116.91" y="42.64" width="1876.1" height="1876.1"/>
   </clipPath>
 </defs>
 <g id="Layer_x0020_1">
  <metadata id="CorelCorpID_0Corel-Layer"/>
  <path class="fil0" d="M2126.3 368.94l223.26 0 313.74 886.48 319.82 -886.48 243.35 0 -450.48 1248.02 -229.15 0 -420.54 -1188.76 0 -59.26zm1756.4 -17.95l274.81 0c54.49,10.76 107.9,28.05 160.25,51.85 95.31,43.45 177.59,105.16 246.53,185.11l-166.57 158.18c-113.27,-119.36 -240.45,-179.04 -382.11,-179.04 -119.35,0 -220.17,40.85 -301.87,122.25 -81.99,81.41 -122.83,181.64 -122.83,301 0,83.14 18.25,157.02 54.46,221.33 36.21,64.61 87.49,115.3 153.54,152.09 66.34,36.8 139.92,55.04 221.04,55.04 68.94,0 132.1,-12.74 189.17,-38.53 57.36,-25.78 120.23,-72.71 188.59,-140.5l161.36 168.61c-92.13,90.09 -179.32,152.67 -261.31,187.43 -81.98,35.05 -175.85,52.43 -281.01,52.43 -194.1,0 -353.14,-61.41 -476.84,-184.54 -123.7,-122.83 -185.41,-280.72 -185.41,-472.79 0,-124.57 28.1,-234.94 84.59,-331.7 56.2,-96.76 136.74,-174.4 241.9,-233.21 64.17,-35.98 131.38,-61.02 201.69,-75.02zm1824.22 0l164.84 0 -553.95 1488.46 -164.83 0 553.95 -1488.46zm799.57 0l164.84 0 -553.96 1488.46 -164.83 0 553.95 -1488.46zm2740.1 17.95l0 1248.02 -215.43 0 0 -1248.02 215.43 0zm-4374.06 302.44c36.8,0 68.08,13.04 94.15,39.11 25.78,26.07 38.82,57.36 38.82,94.15 0,36.5 -13.04,67.5 -38.82,93.57 -26.07,26.07 -57.36,39.11 -94.15,39.11 -36.79,0 -68.08,-12.74 -94.15,-38.53 -25.78,-25.78 -38.82,-57.07 -38.82,-94.16 0,-36.79 13.04,-68.08 38.82,-94.15 26.07,-26.07 57.36,-39.11 94.15,-39.11zm0 702.23c36.8,0 68.08,12.75 94.15,38.53 25.78,25.78 38.82,57.07 38.82,93.86 0,37.08 -13.04,68.37 -38.82,94.44 -26.07,26.07 -57.36,39.11 -94.15,39.11 -36.79,0 -68.08,-13.04 -94.15,-39.11 -25.78,-26.07 -38.82,-57.36 -38.82,-94.44 0,-36.79 13.04,-68.08 38.82,-93.86 26.07,-25.78 57.36,-38.53 94.15,-38.53zm1890.87 -1004.67l244.22 0 313.74 886.48 319.83 -886.48 243.35 0 -450.48 1248.02 -229.15 0 -441.5 -1248.02zm1310.02 0l252.33 0c136.44,0 234.65,12.46 294.91,37.66 60.26,25.2 108.06,66.05 142.82,122.25 34.76,56.2 52.15,123.7 52.15,202.5 0,87.2 -22.89,159.63 -68.66,217.27 -45.48,57.65 -107.48,97.92 -185.99,120.52 -46.06,13.04 -129.78,19.41 -251.17,19.41l0 528.41 -236.39 0 0 -1248.02zm236.39 488.43l76.19 0c59.96,0 101.39,-4.35 124.86,-12.75 23.46,-8.69 41.72,-22.6 55.33,-42.3 13.33,-19.7 19.99,-43.45 19.99,-71.56 0,-48.38 -18.83,-83.72 -56.49,-105.74 -27.23,-16.51 -78.22,-24.91 -152.38,-24.91l-67.5 0 0 257.25z"/>
  <g style="clip-path:url(#id0)">
   <image id="android-chrome-512x512.png" x="116.91" y="42.65" width="1876.09" height="1876.09" xlink:href="vc_logo_Images\vc_logo_ImgID1.png"/>
  </g>
 </g>
</svg>
